<mxfile host="Electron" agent="Mozilla/5.0 (Windows NT 10.0; Win64; x64) AppleWebKit/537.36 (KHTML, like Gecko) draw.io/24.7.8 Chrome/128.0.6613.36 Electron/32.0.1 Safari/537.36" version="24.7.8">
  <diagram name="Page-1" id="0kbbDlxkIuXDH6RubcP5">
    <mxGraphModel dx="1036" dy="606" grid="1" gridSize="10" guides="1" tooltips="1" connect="1" arrows="1" fold="1" page="1" pageScale="1" pageWidth="850" pageHeight="1100" math="0" shadow="0">
      <root>
        <mxCell id="0" />
        <mxCell id="1" parent="0" />
        <mxCell id="GYYbroSgPEy19KueTtWC-1" value="&lt;div style=&quot;font-size: 11px;&quot;&gt;Pregled informacija&lt;/div&gt;" style="ellipse;whiteSpace=wrap;html=1;fontSize=11;" parent="1" vertex="1">
          <mxGeometry x="690" y="160" width="180" height="60" as="geometry" />
        </mxCell>
        <mxCell id="GYYbroSgPEy19KueTtWC-14" style="edgeStyle=orthogonalEdgeStyle;rounded=0;orthogonalLoop=1;jettySize=auto;html=1;entryX=1;entryY=0.5;entryDx=0;entryDy=0;fontSize=11;" parent="1" source="GYYbroSgPEy19KueTtWC-2" target="GYYbroSgPEy19KueTtWC-6" edge="1">
          <mxGeometry relative="1" as="geometry" />
        </mxCell>
        <mxCell id="GYYbroSgPEy19KueTtWC-15" style="edgeStyle=orthogonalEdgeStyle;rounded=0;orthogonalLoop=1;jettySize=auto;html=1;entryX=0;entryY=0.5;entryDx=0;entryDy=0;fontSize=11;" parent="1" source="GYYbroSgPEy19KueTtWC-2" target="GYYbroSgPEy19KueTtWC-1" edge="1">
          <mxGeometry relative="1" as="geometry" />
        </mxCell>
        <mxCell id="GYYbroSgPEy19KueTtWC-2" value="Posetilac sajta" style="shape=umlActor;verticalLabelPosition=bottom;verticalAlign=top;html=1;outlineConnect=0;fontSize=11;" parent="1" vertex="1">
          <mxGeometry x="490" y="160" width="30" height="60" as="geometry" />
        </mxCell>
        <mxCell id="GYYbroSgPEy19KueTtWC-6" value="Izbor jezika" style="ellipse;whiteSpace=wrap;html=1;fontSize=11;" parent="1" vertex="1">
          <mxGeometry x="140" y="165" width="180" height="50" as="geometry" />
        </mxCell>
        <mxCell id="GYYbroSgPEy19KueTtWC-9" value="&lt;div style=&quot;font-size: 11px;&quot;&gt;Član laboratorije&lt;/div&gt;" style="shape=umlActor;verticalLabelPosition=bottom;verticalAlign=top;html=1;outlineConnect=0;fontSize=11;" parent="1" vertex="1">
          <mxGeometry x="490" y="290" width="30" height="60" as="geometry" />
        </mxCell>
        <mxCell id="GYYbroSgPEy19KueTtWC-12" style="edgeStyle=orthogonalEdgeStyle;rounded=0;orthogonalLoop=1;jettySize=auto;html=1;fontSize=11;" parent="1" edge="1">
          <mxGeometry relative="1" as="geometry">
            <mxPoint x="505" y="240" as="sourcePoint" />
            <mxPoint x="505" y="287" as="targetPoint" />
          </mxGeometry>
        </mxCell>
        <mxCell id="GYYbroSgPEy19KueTtWC-16" value="&lt;font style=&quot;font-size: 11px;&quot;&gt;Ažuriranje osnovnih podataka o laboratoriji&lt;/font&gt;" style="ellipse;whiteSpace=wrap;html=1;fontSize=11;" parent="1" vertex="1">
          <mxGeometry x="70" y="280" width="180" height="60" as="geometry" />
        </mxCell>
        <mxCell id="GYYbroSgPEy19KueTtWC-17" value="&lt;font style=&quot;font-size: 11px;&quot;&gt;Kreiranje, brisanje i arhiviranje članova&lt;/font&gt;" style="ellipse;whiteSpace=wrap;html=1;fontSize=11;" parent="1" vertex="1">
          <mxGeometry x="20" y="390" width="190" height="60" as="geometry" />
        </mxCell>
        <mxCell id="GYYbroSgPEy19KueTtWC-18" value="Kreiranje projekta i postavljanje vođe" style="ellipse;whiteSpace=wrap;html=1;fontSize=11;" parent="1" vertex="1">
          <mxGeometry x="50" y="480" width="220" height="60" as="geometry" />
        </mxCell>
        <mxCell id="GYYbroSgPEy19KueTtWC-19" value="Prijavljivanje" style="ellipse;whiteSpace=wrap;html=1;fontSize=11;" parent="1" vertex="1">
          <mxGeometry x="750" y="250" width="190" height="50" as="geometry" />
        </mxCell>
        <mxCell id="GYYbroSgPEy19KueTtWC-20" value="&lt;div&gt;&lt;div style=&quot;font-size: 11px;&quot;&gt;Ažuriranje podataka o osobi&lt;br style=&quot;font-size: 11px;&quot;&gt;&lt;/div&gt;&lt;/div&gt;" style="ellipse;html=1;fontSize=11;whiteSpace=wrap;labelBackgroundColor=none;fontColor=default;" parent="1" vertex="1">
          <mxGeometry x="740" y="320" width="210" height="60" as="geometry" />
        </mxCell>
        <mxCell id="GYYbroSgPEy19KueTtWC-21" value="Ažuriranje&amp;nbsp;podataka o projektima koje vodi" style="ellipse;whiteSpace=wrap;html=1;fontSize=11;" parent="1" vertex="1">
          <mxGeometry x="660" y="560" width="230" height="50" as="geometry" />
        </mxCell>
        <mxCell id="GYYbroSgPEy19KueTtWC-22" value="Ažuriranje&amp;nbsp;podataka o publikaciji" style="ellipse;whiteSpace=wrap;html=1;fontSize=11;" parent="1" vertex="1">
          <mxGeometry x="725" y="400" width="240" height="60" as="geometry" />
        </mxCell>
        <mxCell id="GYYbroSgPEy19KueTtWC-23" value="&lt;div style=&quot;font-size: 11px;&quot;&gt;Šef laboratorije&lt;/div&gt;" style="shape=umlActor;verticalLabelPosition=bottom;verticalAlign=top;html=1;outlineConnect=0;fontSize=11;" parent="1" vertex="1">
          <mxGeometry x="390" y="400" width="30" height="60" as="geometry" />
        </mxCell>
        <mxCell id="GYYbroSgPEy19KueTtWC-24" value="Administrator&lt;div style=&quot;font-size: 11px;&quot;&gt;&lt;br style=&quot;font-size: 11px;&quot;&gt;&lt;/div&gt;" style="shape=umlActor;verticalLabelPosition=bottom;verticalAlign=top;html=1;outlineConnect=0;fontSize=11;" parent="1" vertex="1">
          <mxGeometry x="490" y="540" width="30" height="60" as="geometry" />
        </mxCell>
        <mxCell id="GYYbroSgPEy19KueTtWC-25" value="&lt;div style=&quot;font-size: 11px;&quot;&gt;Vođa projekta&lt;/div&gt;" style="shape=umlActor;verticalLabelPosition=bottom;verticalAlign=top;html=1;outlineConnect=0;fontSize=11;" parent="1" vertex="1">
          <mxGeometry x="580" y="400" width="30" height="60" as="geometry" />
        </mxCell>
        <mxCell id="GYYbroSgPEy19KueTtWC-33" value="" style="endArrow=classic;html=1;rounded=0;fontSize=11;" parent="1" edge="1">
          <mxGeometry width="50" height="50" relative="1" as="geometry">
            <mxPoint x="530" y="550" as="sourcePoint" />
            <mxPoint x="560" y="490" as="targetPoint" />
          </mxGeometry>
        </mxCell>
        <mxCell id="GYYbroSgPEy19KueTtWC-34" value="" style="endArrow=classic;html=1;rounded=0;fontSize=11;" parent="1" edge="1">
          <mxGeometry width="50" height="50" relative="1" as="geometry">
            <mxPoint x="480" y="550" as="sourcePoint" />
            <mxPoint x="420" y="490" as="targetPoint" />
          </mxGeometry>
        </mxCell>
        <mxCell id="GYYbroSgPEy19KueTtWC-35" value="" style="endArrow=classic;html=1;rounded=0;entryX=1;entryY=1;entryDx=0;entryDy=0;fontSize=11;" parent="1" target="GYYbroSgPEy19KueTtWC-16" edge="1">
          <mxGeometry width="50" height="50" relative="1" as="geometry">
            <mxPoint x="380" y="430" as="sourcePoint" />
            <mxPoint x="290" y="330" as="targetPoint" />
          </mxGeometry>
        </mxCell>
        <mxCell id="GYYbroSgPEy19KueTtWC-36" value="" style="endArrow=classic;html=1;rounded=0;entryX=1;entryY=0.5;entryDx=0;entryDy=0;fontSize=11;" parent="1" target="GYYbroSgPEy19KueTtWC-17" edge="1">
          <mxGeometry width="50" height="50" relative="1" as="geometry">
            <mxPoint x="380" y="430" as="sourcePoint" />
            <mxPoint x="250" y="350" as="targetPoint" />
          </mxGeometry>
        </mxCell>
        <mxCell id="GYYbroSgPEy19KueTtWC-37" value="" style="endArrow=classic;html=1;rounded=0;entryX=0.987;entryY=0.357;entryDx=0;entryDy=0;entryPerimeter=0;fontSize=11;" parent="1" target="GYYbroSgPEy19KueTtWC-18" edge="1">
          <mxGeometry width="50" height="50" relative="1" as="geometry">
            <mxPoint x="380" y="430" as="sourcePoint" />
            <mxPoint x="320" y="491" as="targetPoint" />
          </mxGeometry>
        </mxCell>
        <mxCell id="GYYbroSgPEy19KueTtWC-39" value="" style="endArrow=classic;html=1;rounded=0;fontSize=11;" parent="1" edge="1">
          <mxGeometry width="50" height="50" relative="1" as="geometry">
            <mxPoint x="430" y="390" as="sourcePoint" />
            <mxPoint x="480" y="340" as="targetPoint" />
          </mxGeometry>
        </mxCell>
        <mxCell id="GYYbroSgPEy19KueTtWC-41" value="" style="endArrow=classic;html=1;rounded=0;fontSize=11;" parent="1" edge="1">
          <mxGeometry width="50" height="50" relative="1" as="geometry">
            <mxPoint x="580" y="390" as="sourcePoint" />
            <mxPoint x="530" y="340" as="targetPoint" />
          </mxGeometry>
        </mxCell>
        <mxCell id="GYYbroSgPEy19KueTtWC-42" value="" style="endArrow=classic;html=1;rounded=0;fontSize=11;" parent="1" target="GYYbroSgPEy19KueTtWC-21" edge="1">
          <mxGeometry width="50" height="50" relative="1" as="geometry">
            <mxPoint x="640" y="490" as="sourcePoint" />
            <mxPoint x="590" y="470" as="targetPoint" />
          </mxGeometry>
        </mxCell>
        <mxCell id="GYYbroSgPEy19KueTtWC-43" value="" style="endArrow=classic;html=1;rounded=0;entryX=-0.004;entryY=0.395;entryDx=0;entryDy=0;entryPerimeter=0;fontSize=11;" parent="1" target="GYYbroSgPEy19KueTtWC-22" edge="1">
          <mxGeometry width="50" height="50" relative="1" as="geometry">
            <mxPoint x="520" y="290" as="sourcePoint" />
            <mxPoint x="702" y="575" as="targetPoint" />
          </mxGeometry>
        </mxCell>
        <mxCell id="GYYbroSgPEy19KueTtWC-44" value="" style="endArrow=classic;html=1;rounded=0;entryX=0;entryY=0.5;entryDx=0;entryDy=0;fontSize=11;" parent="1" edge="1" target="GYYbroSgPEy19KueTtWC-20">
          <mxGeometry width="50" height="50" relative="1" as="geometry">
            <mxPoint x="520" y="290" as="sourcePoint" />
            <mxPoint x="641.6799999999998" y="353.28" as="targetPoint" />
          </mxGeometry>
        </mxCell>
        <mxCell id="GYYbroSgPEy19KueTtWC-45" value="" style="endArrow=classic;html=1;rounded=0;entryX=0;entryY=0.5;entryDx=0;entryDy=0;fontSize=11;" parent="1" target="GYYbroSgPEy19KueTtWC-19" edge="1">
          <mxGeometry width="50" height="50" relative="1" as="geometry">
            <mxPoint x="520" y="290" as="sourcePoint" />
            <mxPoint x="672" y="373" as="targetPoint" />
          </mxGeometry>
        </mxCell>
      </root>
    </mxGraphModel>
  </diagram>
</mxfile>
